<svg xmlns="http://www.w3.org/2000/svg" width="520" height="520" viewBox="0 0 40 40"><rect width="40" height="40" fill="#fff" fill-rule="evenodd" rx="1.54" ry="1.54"/><g fill="#992e7f"><path fill-rule="evenodd" d="M19.32 28.29a2.07 2.07 0 0 1 .82-1.49l-2.24-6.03-2.57 3.5a5.69 5.69 0 0 1 2.12 4.02z" class="cls-3"/><path fill-rule="evenodd" d="M17.21 8.16c0 .18.03.35.03.53 0 1.42-.53 2.82-1.22 4.4h3.06c.55 0 .55.82 0 .82h-1.5c-.33 0-.65.06-.97.16L18.4 19l.22-.08 2.7 7.44h.07c.24 0 .49.04.7.12l7.4-9.5-.21-.63.23-.08-.71-2.03a.4.4 0 0 1 0-.31l.6-1.24h-1.75c-.55.01-.55-.82 0-.81h2.44c.3 0 .49.3.36.58l-.81 1.62.65 1.88.22-.08 2.15 6.17.62 1.27a5.69 5.69 0 0 1 5.68.95V10.02a1.86 1.86 0 0 0-1.9-1.86zm-1.32 6.26a1.79 1.79 0 0 1-.5.1 69.33 69.33 0 0 1-2.06 3.94c-1.12 1.99-2.1 3.56-2.8 4.72a5.69 5.69 0 0 1 4.19.63l2.89-3.94-.18-.5.22-.09zm15.66 1.57h5.55c.13 0 .25.1.25.22l.05 4.31c0 .12-.1.23-.24.22h-4.03a.24.24 0 0 1-.23-.16l-1.54-4.3a.22.22 0 0 1 0-.2.24.24 0 0 1 .2-.1zm-1.53 2.43-6.91 8.85c1.33 1.96-2.95 4.07-3.7 1.82H17.5a5.69 5.69 0 0 1-9.35 4v3.98c0 1.04.83 1.87 1.86 1.87h27.05c1.04 0 1.87-.83 1.87-1.87V33.1a5.69 5.69 0 0 1-9.37-4.38 5.69 5.69 0 0 1 2.55-4.75l-.65-1.33v-.07z" class="cls-3"/><path fill-rule="evenodd" d="m14.52 25.44-1.87 2.54a1.12 1.12 0 0 1 .19.32h3.2a4.27 4.27 0 0 0-1.52-2.86z" class="cls-3"/><path fill-rule="evenodd" d="M11.8 32.99a4.27 4.27 0 0 0 4.25-3.9h-3.2a1.12 1.12 0 1 1-1.05-1.5h.14l1.9-2.6a4.27 4.27 0 0 0-5.69 1.52v4.4A4.27 4.27 0 0 0 11.8 33zm23.48-8.58a4.24 4.24 0 0 0-1.63.31l1.47 2.86h.12a1.12 1.12 0 1 1-.81.38l-1.47-2.86a4.27 4.27 0 1 0 5.96 5.81v-4.4a4.27 4.27 0 0 0-3.64-2.1z" class="cls-3"/></g><path fill="#992e7f" d="M8.15 23.77s7.4-11.35 7.4-15.08c0-5.5-3.74-7.88-7.4-7.9C4.49.82.75 3.2.75 8.7c0 3.73 7.4 15.09 7.4 15.09zM5.59 8.37a2.57 2.57 0 1 1 5.13 0 2.57 2.57 0 0 1-5.13 0z"/></svg>